<svg xmlns="http://www.w3.org/2000/svg" viewBox="0 0 512 512" width="512" height="512">
  <rect width="512" height="512" rx="100" fill="#6366f1"/>
  <path fill="white" d="M256,64 C150,64 64,150 64,256 C64,362 150,448 256,448 C362,448 448,362 448,256 C448,150 362,64 256,64 Z M352.7,214.3 L240.7,326.3 C236.8,330.2 231.7,332.2 226.5,332.2 C221.3,332.2 216.2,330.2 212.3,326.3 L159.3,273.3 C151.5,265.5 151.5,252.8 159.3,245 C167.1,237.2 179.8,237.2 187.6,245 L226.5,283.9 L324.4,186 C332.2,178.2 344.9,178.2 352.7,186 C360.5,193.8 360.5,206.5 352.7,214.3 Z"/>
</svg>
